<svg width="50" height="60" viewBox="0 0 50 60" fill="none" xmlns="http://www.w3.org/2000/svg">
<path d="M13.973 56.0662L14.9787 49.6777L12.7384 49.6258H2.04028L9.4749 2.4854C9.49798 2.34309 9.57298 2.2104 9.68259 2.11617C9.79221 2.02194 9.93259 1.97002 10.0787 1.97002H28.1173C34.1057 1.97002 38.2384 3.21617 40.3961 5.67579C41.4077 6.82963 42.0519 8.0354 42.3634 9.36232C42.6903 10.7546 42.6961 12.4181 42.3769 14.4469L42.3538 14.595V15.895L43.3653 16.4681C44.2173 16.92 44.8942 17.4373 45.4134 18.0296C46.2788 19.0162 46.8384 20.27 47.075 21.7565C47.3192 23.2854 47.2384 25.1046 46.8384 27.1642C46.3769 29.5335 45.6307 31.5969 44.623 33.2854C43.6961 34.8412 42.5153 36.1315 41.1134 37.1315C39.775 38.0815 38.1846 38.8027 36.3865 39.2642C34.6442 39.7181 32.6576 39.9469 30.4788 39.9469H29.075C28.0711 39.9469 27.0961 40.3085 26.3307 40.9565C25.5634 41.6181 25.0557 42.5219 24.9 43.5104L24.7942 44.0854L23.0173 55.345L22.9365 55.7585C22.9153 55.8892 22.8788 55.9546 22.825 55.9988C22.7769 56.0392 22.7076 56.0662 22.6403 56.0662H13.973Z" fill="#253B80"/>
<path d="M44.323 14.7442C44.2692 15.0884 44.2076 15.4404 44.1384 15.8019C41.7596 28.0154 33.6211 32.2346 23.2269 32.2346H17.9346C16.6635 32.2346 15.5923 33.1577 15.3942 34.4115L12.6846 51.5962L11.9173 56.4673C11.7885 57.2904 12.4231 58.0327 13.2538 58.0327H22.6403C23.7519 58.0327 24.6961 57.225 24.8711 56.1289L24.9634 55.6519L26.7307 44.4365L26.8442 43.8212C27.0173 42.7212 27.9634 41.9135 29.075 41.9135H30.4788C39.573 41.9135 46.6923 38.2212 48.773 27.5365C49.6423 23.0731 49.1923 19.3462 46.8923 16.725C46.1961 15.9346 45.3326 15.2788 44.323 14.7442Z" fill="#179BD7"/>
<path d="M41.8347 13.752C41.4712 13.6462 41.0962 13.5501 40.7116 13.4635C40.3251 13.3789 39.9289 13.3039 39.5212 13.2385C38.0943 13.0077 36.5308 12.8981 34.8558 12.8981H20.7174C20.3693 12.8981 20.0385 12.977 19.7424 13.1193C19.0904 13.4327 18.6058 14.0501 18.4885 14.8058L15.4808 33.8558L15.3943 34.4115C15.5924 33.1577 16.6635 32.2346 17.9347 32.2346H23.227C33.6212 32.2346 41.7597 28.0135 44.1385 15.802C44.2097 15.4404 44.2693 15.0885 44.3231 14.7443C43.7212 14.4251 43.0693 14.152 42.3674 13.9193C42.1943 13.8616 42.0154 13.8058 41.8347 13.752Z" fill="#222D65"/>
<path d="M18.4884 14.8058C18.6058 14.05 19.0904 13.4327 19.7423 13.1212C20.0404 12.9788 20.3692 12.9 20.7173 12.9H34.8558C36.5308 12.9 38.0942 13.0096 39.5212 13.2404C39.9288 13.3058 40.325 13.3808 40.7115 13.4654C41.0962 13.5519 41.4712 13.6481 41.8346 13.7538C42.0154 13.8077 42.1942 13.8635 42.3692 13.9192C43.0712 14.1519 43.7231 14.4269 44.325 14.7442C45.0327 10.2308 44.3192 7.15769 41.8788 4.375C39.1885 1.31154 34.3327 0 28.1192 0H10.0808C8.81152 0 7.72883 0.923077 7.53267 2.17885L0.0192093 49.8038C-0.128868 50.7462 0.598056 51.5962 1.54806 51.5962H12.6846L15.4807 33.8558L18.4884 14.8058Z" fill="#253B80"/>
</svg>
