<svg width="800" height="250" viewBox="0 0 800 250" fill="none" xmlns="http://www.w3.org/2000/svg">
  <rect width="800" height="250" fill="#191919" />
  <rect x="150" y="50" width="500" height="150" rx="8" fill="#2A2A2A" />
  <!-- Header -->
  <rect x="170" y="70" width="460" height="30" rx="4" fill="#333333" />
  <circle cx="190" cy="85" r="8" fill="#9333EA" />
  <rect x="210" y="80" width="100" height="10" rx="2" fill="#666666" />
  
  <!-- Left Sidebar -->
  <rect x="170" y="110" width="100" height="70" rx="4" fill="#333333" />
  <rect x="180" y="120" width="80" height="10" rx="2" fill="#555555" />
  <rect x="180" y="140" width="80" height="10" rx="2" fill="#555555" />
  <rect x="180" y="160" width="80" height="10" rx="2" fill="#555555" />
  
  <!-- Main Content -->
  <rect x="280" y="110" width="350" height="70" rx="4" fill="#333333" />
  <rect x="290" y="120" width="160" height="50" rx="2" fill="#444444" />
  <rect x="460" y="120" width="160" height="50" rx="2" fill="#444444" />
  <rect x="300" y="130" width="140" height="8" rx="2" fill="#666666" />
  <rect x="300" y="145" width="140" height="8" rx="2" fill="#666666" />
  <rect x="300" y="160" width="80" height="8" rx="2" fill="#9333EA" />
  <rect x="470" y="130" width="140" height="8" rx="2" fill="#666666" />
  <rect x="470" y="145" width="140" height="8" rx="2" fill="#666666" />
  <rect x="470" y="160" width="80" height="8" rx="2" fill="#9333EA" />
  
  <!-- Text label -->
  <text x="330" y="205" fill="white" font-family="Arial" font-size="20" font-weight="bold">ADMIN DASHBOARD</text>
</svg>