<svg width="800" height="250" viewBox="0 0 800 250" fill="none" xmlns="http://www.w3.org/2000/svg">
  <rect width="800" height="250" fill="#191919" />
  <rect x="150" y="50" width="500" height="150" rx="8" fill="#2A2A2A" />
  
  <!-- Header -->
  <rect x="170" y="70" width="460" height="30" rx="4" fill="#333333" />
  <rect x="180" y="80" width="80" height="10" rx="2" fill="#9333EA" />
  <rect x="530" y="80" width="90" height="10" rx="2" fill="#555555" />
  
  <!-- Main Content - Table -->
  <rect x="170" y="110" width="460" height="80" rx="4" fill="#333333" />
  
  <!-- Table Headers -->
  <rect x="180" y="120" width="440" height="15" rx="2" fill="#444444" />
  <rect x="190" y="123" width="50" height="8" rx="2" fill="#666666" />
  <rect x="290" y="123" width="80" height="8" rx="2" fill="#666666" />
  <rect x="390" y="123" width="60" height="8" rx="2" fill="#666666" />
  <rect x="490" y="123" width="70" height="8" rx="2" fill="#666666" />
  
  <!-- Table Rows -->
  <rect x="180" y="140" width="440" height="15" rx="2" fill="#3A3A3A" />
  <rect x="190" y="143" width="30" height="8" rx="2" fill="#9333EA" />
  <rect x="290" y="143" width="60" height="8" rx="2" fill="#666666" />
  <rect x="390" y="143" width="40" height="8" rx="2" fill="#666666" />
  <rect x="490" y="143" width="20" height="8" rx="2" fill="#9333EA" />
  
  <rect x="180" y="160" width="440" height="15" rx="2" fill="#3A3A3A" />
  <rect x="190" y="163" width="30" height="8" rx="2" fill="#9333EA" />
  <rect x="290" y="163" width="60" height="8" rx="2" fill="#666666" />
  <rect x="390" y="163" width="40" height="8" rx="2" fill="#666666" />
  <rect x="490" y="163" width="20" height="8" rx="2" fill="#9333EA" />
  
  <!-- Text label -->
  <text x="370" y="205" fill="white" font-family="Arial" font-size="20" font-weight="bold">CUSTOM CRM</text>
</svg>