<svg width="56" height="56" viewBox="0 0 56 56" fill="none" xmlns="http://www.w3.org/2000/svg">
<path d="M43.2487 25.2651C43.1644 25.198 42.3767 24.6033 40.7155 24.6033C40.2769 24.6052 39.8392 24.6428 39.4067 24.7158C39.0852 22.5122 37.2633 21.4378 37.1816 21.3896L36.7356 21.1323L36.4422 21.5557C36.0748 22.1243 35.8066 22.7512 35.6491 23.4097C35.3517 24.6676 35.5326 25.8491 36.1716 26.8592C35.4 27.2892 34.1622 27.395 33.9117 27.4044H13.4183C12.883 27.4051 12.4487 27.8377 12.4458 28.3729C12.4219 30.1683 12.726 31.9529 13.3433 33.6389C14.0493 35.4903 15.0995 36.854 16.4659 37.6886C17.9971 38.6263 20.4848 39.1621 23.3046 39.1621C24.5785 39.1662 25.85 39.0509 27.1025 38.8179C28.8434 38.4982 30.5187 37.8897 32.059 37.0174C33.3282 36.2825 34.4704 35.3475 35.4415 34.2484C37.0651 32.4105 38.0324 30.3635 38.7517 28.5444H39.0384C40.816 28.5444 41.9092 27.833 42.512 27.2369C42.9126 26.8567 43.2254 26.3936 43.4283 25.8799L43.5556 25.5075L43.2487 25.2651Z" fill="#2496ED"/>
<path d="M15.3179 26.8043H18.0641C18.1965 26.8043 18.3039 26.6969 18.3039 26.5645V24.1183C18.3046 23.9859 18.1979 23.8779 18.0654 23.8772C18.065 23.8772 18.0645 23.8772 18.0641 23.8772H15.3179C15.1855 23.8772 15.0781 23.9846 15.0781 24.117V24.1183V26.5644C15.0781 26.6969 15.1855 26.8043 15.3179 26.8043V26.8043Z" fill="#2496ED"/>
<path d="M19.1023 26.8043H21.8485C21.981 26.8043 22.0883 26.6969 22.0883 26.5645V24.1183C22.089 23.9859 21.9823 23.8779 21.8498 23.8772C21.8494 23.8772 21.8489 23.8772 21.8485 23.8772H19.1023C18.9691 23.8772 18.8611 23.9851 18.8611 24.1183V26.5644C18.8619 26.6971 18.9696 26.8043 19.1023 26.8043" fill="#2496ED"/>
<path d="M22.9443 26.8043H25.6905C25.8229 26.8043 25.9303 26.6969 25.9303 26.5645V24.1183C25.931 23.9859 25.8242 23.8779 25.6918 23.8772C25.6914 23.8772 25.6909 23.8772 25.6904 23.8772H22.9442C22.8118 23.8772 22.7045 23.9846 22.7045 24.117V24.1183V26.5644C22.7045 26.6969 22.8119 26.8043 22.9443 26.8043V26.8043Z" fill="#2496ED"/>
<path d="M26.7408 26.8043H29.4869C29.6196 26.8043 29.7273 26.6972 29.7281 26.5645V24.1183C29.7281 23.9851 29.6201 23.8772 29.4869 23.8772H26.7408C26.6083 23.8772 26.501 23.9846 26.501 24.117V24.1183V26.5644C26.501 26.6969 26.6083 26.8043 26.7408 26.8043V26.8043Z" fill="#2496ED"/>
<path d="M19.1023 23.2852H21.8485C21.9811 23.2844 22.0882 23.1767 22.0882 23.044V20.5979C22.0882 20.4655 21.9809 20.3582 21.8485 20.3582H19.1023C18.9696 20.3582 18.8619 20.4653 18.8611 20.5979V23.044C18.8619 23.1769 18.9694 23.2844 19.1023 23.2852Z" fill="#2496ED"/>
<path d="M22.9442 23.2852H25.6904C25.8231 23.2844 25.9302 23.1767 25.9302 23.044V20.5979C25.9302 20.4655 25.8228 20.3582 25.6904 20.3582H22.9442C22.8118 20.3582 22.7045 20.4655 22.7045 20.5979V23.044C22.7045 23.1767 22.8116 23.2844 22.9442 23.2852Z" fill="#2496ED"/>
<path d="M26.7408 23.2852H29.4869C29.6198 23.2844 29.7273 23.1769 29.7281 23.044V20.5979C29.7273 20.4653 29.6196 20.3582 29.4869 20.3582H26.7408C26.6083 20.3582 26.501 20.4655 26.501 20.5979V23.044C26.501 23.1767 26.6081 23.2844 26.7408 23.2852Z" fill="#2496ED"/>
<path d="M26.7408 19.7647H29.4869C29.6196 19.7647 29.7273 19.6576 29.7281 19.5249V17.0774C29.7273 16.9448 29.6196 16.8376 29.4869 16.8376H26.7408C26.6083 16.8376 26.501 16.945 26.501 17.0774V19.5249C26.501 19.6573 26.6083 19.7647 26.7408 19.7647Z" fill="#2496ED"/>
<path d="M30.5706 26.8043H33.3168C33.4495 26.8043 33.5572 26.6972 33.558 26.5645V24.1183C33.558 23.9851 33.45 23.8772 33.3168 23.8772H30.5706C30.4382 23.8772 30.3309 23.9846 30.3309 24.117V24.1183V26.5644C30.3309 26.6969 30.4382 26.8043 30.5706 26.8043" fill="#2496ED"/>
</svg>
